<svg width="40" height="48" viewBox="0 0 40 48" fill="none" xmlns="http://www.w3.org/2000/svg">
<g filter="url(#filter0_i_210_2)">
<path fill-rule="evenodd" clip-rule="evenodd" d="M0 30.4148C0 39.5622 7.37746 47.0046 16.4452 47.0046C18.1262 47.0046 19.7492 46.7488 21.2779 46.2738C22.6229 46.7488 24.0509 47.0046 25.53 47.0046C33.5081 47.0046 40 39.5622 40 30.4148C40 21.2673 33.5081 13.8249 25.53 13.8249C24.0509 13.8249 22.6229 14.0807 21.2779 14.5557C19.7492 14.0807 18.1262 13.8249 16.4452 13.8249C7.37746 13.8249 0 21.2673 0 30.4148ZM17.237 16.8268C16.975 16.8114 16.711 16.8036 16.4452 16.8036C9.0028 16.8036 2.9498 22.9099 2.9498 30.4177C2.9498 37.9256 9.0028 44.0318 16.4452 44.0318C16.7133 44.0318 16.9796 44.0239 17.2439 44.0083C13.5075 41.0054 11.0599 36.0315 11.0599 30.4148C11.0599 24.8014 13.5045 19.8302 17.237 16.8268Z" fill="url(#paint0_linear_210_2)"/>
</g>
<g filter="url(#filter1_i_210_2)">
<path fill-rule="evenodd" clip-rule="evenodd" d="M11.0599 7.88757H25.32C28.1319 7.88757 30.4202 6.19324 30.4202 4.1112V0H16.1601C13.3482 0 11.0599 1.69433 11.0599 3.77637V7.88757Z" fill="url(#paint1_linear_210_2)"/>
</g>
<defs>
<filter id="filter0_i_210_2" x="0" y="13.8249" width="40" height="37.1797" filterUnits="userSpaceOnUse" color-interpolation-filters="sRGB">
<feFlood flood-opacity="0" result="BackgroundImageFix"/>
<feBlend mode="normal" in="SourceGraphic" in2="BackgroundImageFix" result="shape"/>
<feColorMatrix in="SourceAlpha" type="matrix" values="0 0 0 0 0 0 0 0 0 0 0 0 0 0 0 0 0 0 127 0" result="hardAlpha"/>
<feOffset dy="4"/>
<feGaussianBlur stdDeviation="10"/>
<feComposite in2="hardAlpha" operator="arithmetic" k2="-1" k3="1"/>
<feColorMatrix type="matrix" values="0 0 0 0 0 0 0 0 0 0 0 0 0 0 0 0 0 0 0.1 0"/>
<feBlend mode="normal" in2="shape" result="effect1_innerShadow_210_2"/>
</filter>
<filter id="filter1_i_210_2" x="11.0599" y="0" width="19.3602" height="11.8876" filterUnits="userSpaceOnUse" color-interpolation-filters="sRGB">
<feFlood flood-opacity="0" result="BackgroundImageFix"/>
<feBlend mode="normal" in="SourceGraphic" in2="BackgroundImageFix" result="shape"/>
<feColorMatrix in="SourceAlpha" type="matrix" values="0 0 0 0 0 0 0 0 0 0 0 0 0 0 0 0 0 0 127 0" result="hardAlpha"/>
<feOffset dy="4"/>
<feGaussianBlur stdDeviation="10"/>
<feComposite in2="hardAlpha" operator="arithmetic" k2="-1" k3="1"/>
<feColorMatrix type="matrix" values="0 0 0 0 0 0 0 0 0 0 0 0 0 0 0 0 0 0 0.1 0"/>
<feBlend mode="normal" in2="shape" result="effect1_innerShadow_210_2"/>
</filter>
<linearGradient id="paint0_linear_210_2" x1="23.8899" y1="13.9927" x2="23.8899" y2="47.1724" gradientUnits="userSpaceOnUse">
<stop stop-color="#E84545"/>
<stop offset="0.416667" stop-color="#E86845"/>
<stop offset="1" stop-color="#E8B145" stop-opacity="0.81"/>
</linearGradient>
<linearGradient id="paint1_linear_210_2" x1="20.7401" y1="0" x2="20.7401" y2="7.88757" gradientUnits="userSpaceOnUse">
<stop stop-color="#97AA53"/>
<stop offset="1" stop-color="#616F31"/>
</linearGradient>
</defs>
</svg>
