<svg width="14" height="17" viewBox="0 0 14 17" fill="none" xmlns="http://www.w3.org/2000/svg">
<g filter="url(#filter0_i_210_2)">
<path fill-rule="evenodd" clip-rule="evenodd" d="M0 11C0 14.3083 2.66818 17 5.94767 17C6.52295 17 7.07942 16.9172 7.60598 16.7627C8.04862 16.9172 8.51641 17 9 17C11.7568 17 14 14.3083 14 11C14 7.69166 11.7568 5 9 5C8.51641 5 8.04862 5.08283 7.60598 5.23728C7.07942 5.08283 6.52295 5 5.94767 5C2.66818 5 0 7.69166 0 11ZM6.13993 6.08108C6.07614 6.07857 6.01205 6.07731 5.94767 6.07731C3.25601 6.07731 1.06685 8.28574 1.06685 11.0011C1.06685 13.7164 3.25601 15.9248 5.94767 15.9248C6.01287 15.9248 6.07778 15.9235 6.14237 15.921C4.84817 14.8354 4 13.0343 4 11C4 8.96698 4.84711 7.16683 6.13993 6.08108ZM4.99522 11.0011C4.99522 10.5749 5.03948 10.1611 5.12265 9.76649C5.04256 10.161 5 10.5743 5 11C5 11.4473 5.047 11.881 5.13516 12.2936C5.04393 11.8816 4.99522 11.4482 4.99522 11.0011ZM13.0048 11.0011C13.0048 11.4482 12.9561 11.8816 12.8648 12.2936C12.953 11.881 13 11.4474 13 11C13 10.5743 12.9574 10.161 12.8774 9.76648C12.9605 10.1611 13.0048 10.5749 13.0048 11.0011Z" fill="black"/>
</g>
<g filter="url(#filter1_i_210_2)">
<path fill-rule="evenodd" clip-rule="evenodd" d="M4 2.85267H9.15739C10.1744 2.85267 11.002 2.23989 11.002 1.48688V0H5.84456C4.82759 0 4 0.612783 4 1.36579V2.85267Z" fill="black"/>
</g>
<defs>
<filter id="filter0_i_210_2" x="0" y="5" width="14" height="16" filterUnits="userSpaceOnUse" color-interpolation-filters="sRGB">
<feFlood flood-opacity="0" result="BackgroundImageFix"/>
<feBlend mode="normal" in="SourceGraphic" in2="BackgroundImageFix" result="shape"/>
<feColorMatrix in="SourceAlpha" type="matrix" values="0 0 0 0 0 0 0 0 0 0 0 0 0 0 0 0 0 0 127 0" result="hardAlpha"/>
<feOffset dy="4"/>
<feGaussianBlur stdDeviation="10"/>
<feComposite in2="hardAlpha" operator="arithmetic" k2="-1" k3="1"/>
<feColorMatrix type="matrix" values="0 0 0 0 0 0 0 0 0 0 0 0 0 0 0 0 0 0 0.1 0"/>
<feBlend mode="normal" in2="shape" result="effect1_innerShadow_210_2"/>
</filter>
<filter id="filter1_i_210_2" x="4" y="0" width="7.00195" height="6.85266" filterUnits="userSpaceOnUse" color-interpolation-filters="sRGB">
<feFlood flood-opacity="0" result="BackgroundImageFix"/>
<feBlend mode="normal" in="SourceGraphic" in2="BackgroundImageFix" result="shape"/>
<feColorMatrix in="SourceAlpha" type="matrix" values="0 0 0 0 0 0 0 0 0 0 0 0 0 0 0 0 0 0 127 0" result="hardAlpha"/>
<feOffset dy="4"/>
<feGaussianBlur stdDeviation="10"/>
<feComposite in2="hardAlpha" operator="arithmetic" k2="-1" k3="1"/>
<feColorMatrix type="matrix" values="0 0 0 0 0 0 0 0 0 0 0 0 0 0 0 0 0 0 0.1 0"/>
<feBlend mode="normal" in2="shape" result="effect1_innerShadow_210_2"/>
</filter>
</defs>
</svg>
