<svg width="184" height="68" viewBox="0 0 184 68" fill="none" xmlns="http://www.w3.org/2000/svg">
<rect x="1" y="11" width="182" height="47" rx="9" fill="#FDDC48"/>
<path d="M24.9312 24.2374L24.537 25.2577H25.6308H40.5385H41.6323L41.2381 24.2374L39.8828 20.7297L39.6975 20.25H39.1832H26.986H26.4718L26.2864 20.7297L24.9312 24.2374Z" fill="white" stroke="black" stroke-width="1.5"/>
<path d="M41.4154 26.7L37.9077 49.5" stroke="#F69935" stroke-width="1.5"/>
<path d="M28.2615 49.5L24.3154 26.2615H42.2923L38.7846 49.5H28.2615Z" stroke="black" stroke-width="1.5"/>
<path d="M25.1923 42.0462L23.4385 32.4H43.1692L41.4154 42.0462H25.1923Z" fill="white" stroke="black" stroke-width="1.5"/>
<path d="M23 26.2615V23.6308H43.1692V26.2615H23Z" fill="white" stroke="black" stroke-width="1.5"/>
<path d="M55.5361 40V30.0469H59.0225C60.2301 30.0469 61.1462 30.2793 61.7705 30.7441C62.3949 31.2044 62.707 31.8812 62.707 32.7744C62.707 33.262 62.5817 33.6927 62.3311 34.0664C62.0804 34.4355 61.7318 34.7067 61.2852 34.8799C61.7956 35.0075 62.1966 35.265 62.4883 35.6523C62.7845 36.0397 62.9326 36.5137 62.9326 37.0742C62.9326 38.0312 62.6273 38.7559 62.0166 39.248C61.4059 39.7402 60.5355 39.9909 59.4053 40H55.5361ZM57.5869 35.666V38.3525H59.3438C59.8268 38.3525 60.2028 38.2386 60.4717 38.0107C60.7451 37.7783 60.8818 37.4593 60.8818 37.0537C60.8818 36.1423 60.4102 35.6797 59.4668 35.666H57.5869ZM57.5869 34.2168H59.1045C60.139 34.1986 60.6562 33.7861 60.6562 32.9795C60.6562 32.5283 60.5241 32.2048 60.2598 32.0088C60 31.8083 59.5876 31.708 59.0225 31.708H57.5869V34.2168ZM68.7773 39.248C68.2897 39.8405 67.6152 40.1367 66.7539 40.1367C65.9609 40.1367 65.3548 39.9089 64.9355 39.4531C64.5208 38.9974 64.3089 38.3298 64.2998 37.4502V32.6035H66.2754V37.3818C66.2754 38.152 66.6263 38.5371 67.3281 38.5371C67.998 38.5371 68.4583 38.3047 68.709 37.8398V32.6035H70.6914V40H68.832L68.7773 39.248ZM74.9434 37.2041L76.3105 32.6035H78.4297L75.4561 41.1484L75.292 41.5381C74.8499 42.5042 74.1208 42.9873 73.1045 42.9873C72.8174 42.9873 72.5257 42.944 72.2295 42.8574V41.3604L72.5303 41.3672C72.904 41.3672 73.182 41.3102 73.3643 41.1963C73.5511 41.0824 73.6969 40.8932 73.8018 40.6289L74.0342 40.0205L71.4434 32.6035H73.5693L74.9434 37.2041ZM84.5479 32.6035L84.6094 33.4307C85.1335 32.7881 85.8421 32.4668 86.7354 32.4668C87.6878 32.4668 88.3418 32.8428 88.6973 33.5947C89.2168 32.8428 89.9574 32.4668 90.9189 32.4668C91.721 32.4668 92.318 32.7015 92.71 33.1709C93.1019 33.6357 93.2979 34.3376 93.2979 35.2764V40H91.3154V35.2832C91.3154 34.8639 91.2334 34.5586 91.0693 34.3672C90.9053 34.1712 90.6159 34.0732 90.2012 34.0732C89.6087 34.0732 89.1986 34.3558 88.9707 34.9209L88.9775 40H87.002V35.29C87.002 34.8617 86.9176 34.5518 86.749 34.3604C86.5804 34.1689 86.2933 34.0732 85.8877 34.0732C85.3271 34.0732 84.9215 34.3057 84.6709 34.7705V40H82.6953V32.6035H84.5479ZM98.2266 40.1367C97.1419 40.1367 96.2578 39.804 95.5742 39.1387C94.8952 38.4733 94.5557 37.5869 94.5557 36.4795V36.2881C94.5557 35.5452 94.6992 34.8822 94.9863 34.2988C95.2734 33.7109 95.679 33.2598 96.2031 32.9453C96.7318 32.6263 97.3333 32.4668 98.0078 32.4668C99.0195 32.4668 99.8148 32.7858 100.394 33.4238C100.977 34.0618 101.269 34.9665 101.269 36.1377V36.9443H96.5586C96.6224 37.4274 96.8138 37.8148 97.1328 38.1064C97.4564 38.3981 97.8643 38.5439 98.3564 38.5439C99.1175 38.5439 99.7122 38.2682 100.141 37.7168L101.111 38.8037C100.815 39.223 100.414 39.5511 99.9082 39.7881C99.4023 40.0205 98.8418 40.1367 98.2266 40.1367ZM98.001 34.0664C97.609 34.0664 97.29 34.1986 97.0439 34.4629C96.8024 34.7272 96.6475 35.1055 96.5791 35.5977H99.3271V35.4404C99.318 35.0029 99.1995 34.6657 98.9717 34.4287C98.7438 34.1872 98.4202 34.0664 98.001 34.0664ZM110.169 40C110.078 39.8223 110.012 39.6012 109.971 39.3369C109.492 39.8701 108.87 40.1367 108.104 40.1367C107.38 40.1367 106.778 39.9271 106.3 39.5078C105.826 39.0885 105.589 38.5599 105.589 37.9219C105.589 37.138 105.878 36.5365 106.457 36.1172C107.04 35.6979 107.881 35.486 108.979 35.4814H109.889V35.0576C109.889 34.7158 109.8 34.4424 109.622 34.2373C109.449 34.0322 109.173 33.9297 108.795 33.9297C108.462 33.9297 108.2 34.0094 108.009 34.1689C107.822 34.3285 107.729 34.5472 107.729 34.8252H105.753C105.753 34.3968 105.885 34.0003 106.149 33.6357C106.414 33.2712 106.787 32.9863 107.271 32.7812C107.754 32.5716 108.296 32.4668 108.897 32.4668C109.809 32.4668 110.531 32.6969 111.064 33.1572C111.602 33.613 111.871 34.2555 111.871 35.085V38.291C111.876 38.9928 111.974 39.5238 112.165 39.8838V40H110.169ZM108.535 38.626C108.827 38.626 109.096 38.5622 109.342 38.4346C109.588 38.3024 109.77 38.127 109.889 37.9082V36.6367H109.15C108.161 36.6367 107.635 36.9785 107.571 37.6621L107.564 37.7783C107.564 38.0244 107.651 38.2272 107.824 38.3867C107.997 38.5462 108.234 38.626 108.535 38.626ZM119.951 38.5439C120.316 38.5439 120.612 38.4437 120.84 38.2432C121.068 38.0426 121.186 37.776 121.195 37.4434H123.048C123.043 37.9447 122.907 38.4049 122.638 38.8242C122.369 39.2389 122 39.5625 121.53 39.7949C121.065 40.0228 120.55 40.1367 119.985 40.1367C118.928 40.1367 118.094 39.8018 117.483 39.1318C116.873 38.4574 116.567 37.5277 116.567 36.3428V36.2129C116.567 35.0736 116.87 34.1644 117.477 33.4854C118.083 32.8063 118.914 32.4668 119.972 32.4668C120.897 32.4668 121.637 32.7311 122.193 33.2598C122.754 33.7839 123.039 34.4834 123.048 35.3584H121.195C121.186 34.9756 121.068 34.6657 120.84 34.4287C120.612 34.1872 120.311 34.0664 119.938 34.0664C119.477 34.0664 119.129 34.235 118.892 34.5723C118.659 34.9049 118.543 35.4473 118.543 36.1992V36.4043C118.543 37.1654 118.659 37.7122 118.892 38.0449C119.124 38.3776 119.477 38.5439 119.951 38.5439ZM123.868 36.2334C123.868 35.4997 124.009 34.8457 124.292 34.2715C124.575 33.6973 124.98 33.2529 125.509 32.9385C126.042 32.624 126.66 32.4668 127.361 32.4668C128.359 32.4668 129.173 32.7721 129.802 33.3828C130.435 33.9935 130.788 34.8229 130.861 35.8711L130.875 36.377C130.875 37.5117 130.558 38.4232 129.925 39.1113C129.291 39.7949 128.441 40.1367 127.375 40.1367C126.309 40.1367 125.456 39.7949 124.818 39.1113C124.185 38.4277 123.868 37.498 123.868 36.3223V36.2334ZM125.844 36.377C125.844 37.0788 125.976 37.6165 126.24 37.9902C126.505 38.3594 126.883 38.5439 127.375 38.5439C127.854 38.5439 128.227 38.3617 128.496 37.9971C128.765 37.6279 128.899 37.04 128.899 36.2334C128.899 35.5452 128.765 35.012 128.496 34.6338C128.227 34.2555 127.849 34.0664 127.361 34.0664C126.878 34.0664 126.505 34.2555 126.24 34.6338C125.976 35.0075 125.844 35.5885 125.844 36.377ZM132.632 40V34.0527H131.531V32.6035H132.632V31.9746C132.632 31.1452 132.869 30.5026 133.343 30.0469C133.821 29.5866 134.489 29.3564 135.346 29.3564C135.619 29.3564 135.954 29.402 136.351 29.4932L136.33 31.0244C136.166 30.9834 135.965 30.9629 135.729 30.9629C134.986 30.9629 134.614 31.3115 134.614 32.0088V32.6035H136.084V34.0527H134.614V40H132.632ZM137.649 40V34.0527H136.549V32.6035H137.649V31.9746C137.649 31.1452 137.886 30.5026 138.36 30.0469C138.839 29.5866 139.507 29.3564 140.363 29.3564C140.637 29.3564 140.972 29.402 141.368 29.4932L141.348 31.0244C141.184 30.9834 140.983 30.9629 140.746 30.9629C140.003 30.9629 139.632 31.3115 139.632 32.0088V32.6035H141.102V34.0527H139.632V40H137.649ZM145.367 40.1367C144.283 40.1367 143.398 39.804 142.715 39.1387C142.036 38.4733 141.696 37.5869 141.696 36.4795V36.2881C141.696 35.5452 141.84 34.8822 142.127 34.2988C142.414 33.7109 142.82 33.2598 143.344 32.9453C143.872 32.6263 144.474 32.4668 145.148 32.4668C146.16 32.4668 146.955 32.7858 147.534 33.4238C148.118 34.0618 148.409 34.9665 148.409 36.1377V36.9443H143.699C143.763 37.4274 143.954 37.8148 144.273 38.1064C144.597 38.3981 145.005 38.5439 145.497 38.5439C146.258 38.5439 146.853 38.2682 147.281 37.7168L148.252 38.8037C147.956 39.223 147.555 39.5511 147.049 39.7881C146.543 40.0205 145.982 40.1367 145.367 40.1367ZM145.142 34.0664C144.75 34.0664 144.431 34.1986 144.185 34.4629C143.943 34.7272 143.788 35.1055 143.72 35.5977H146.468V35.4404C146.459 35.0029 146.34 34.6657 146.112 34.4287C145.884 34.1872 145.561 34.0664 145.142 34.0664ZM152.941 40.1367C151.857 40.1367 150.973 39.804 150.289 39.1387C149.61 38.4733 149.271 37.5869 149.271 36.4795V36.2881C149.271 35.5452 149.414 34.8822 149.701 34.2988C149.988 33.7109 150.394 33.2598 150.918 32.9453C151.447 32.6263 152.048 32.4668 152.723 32.4668C153.734 32.4668 154.53 32.7858 155.108 33.4238C155.692 34.0618 155.983 34.9665 155.983 36.1377V36.9443H151.273C151.337 37.4274 151.529 37.8148 151.848 38.1064C152.171 38.3981 152.579 38.5439 153.071 38.5439C153.832 38.5439 154.427 38.2682 154.855 37.7168L155.826 38.8037C155.53 39.223 155.129 39.5511 154.623 39.7881C154.117 40.0205 153.557 40.1367 152.941 40.1367ZM152.716 34.0664C152.324 34.0664 152.005 34.1986 151.759 34.4629C151.517 34.7272 151.362 35.1055 151.294 35.5977H154.042V35.4404C154.033 35.0029 153.914 34.6657 153.687 34.4287C153.459 34.1872 153.135 34.0664 152.716 34.0664Z" fill="black"/>
<rect x="1" y="11" width="182" height="47" rx="9" stroke="black" stroke-width="2"/>
</svg>
