<svg width="156" height="68" viewBox="0 0 156 68" fill="none" xmlns="http://www.w3.org/2000/svg">
<g clip-path="url(#clip0_306_2)">
<path d="M147.522 11H8.47827C4.2641 11 0.847839 15.0294 0.847839 20V49C0.847839 53.9706 4.2641 58 8.47827 58H147.522C151.736 58 155.152 53.9706 155.152 49V20C155.152 15.0294 151.736 11 147.522 11Z" fill="black"/>
<path d="M147.522 11H8.47827C4.2641 11 0.847839 15.0294 0.847839 20V49C0.847839 53.9706 4.2641 58 8.47827 58H147.522C151.736 58 155.152 53.9706 155.152 49V20C155.152 15.0294 151.736 11 147.522 11Z" stroke="black" stroke-width="2"/>
<path d="M69.56 34.216C69.56 35.064 69.4187 35.8427 69.136 36.552C68.8533 37.2613 68.456 37.872 67.944 38.384C67.432 38.896 66.816 39.2933 66.096 39.576C65.376 39.8587 64.576 40 63.696 40H59.288V28.432H63.696C64.576 28.432 65.376 28.576 66.096 28.864C66.816 29.1467 67.432 29.544 67.944 30.056C68.456 30.5627 68.8533 31.1707 69.136 31.88C69.4187 32.5893 69.56 33.368 69.56 34.216ZM67.352 34.216C67.352 33.5813 67.2667 33.0133 67.096 32.512C66.9307 32.0053 66.688 31.5787 66.368 31.232C66.0533 30.88 65.6693 30.6107 65.216 30.424C64.768 30.2373 64.2613 30.144 63.696 30.144H61.448V38.288H63.696C64.2613 38.288 64.768 38.1947 65.216 38.008C65.6693 37.8213 66.0533 37.5547 66.368 37.208C66.688 36.856 66.9307 36.4293 67.096 35.928C67.2667 35.4213 67.352 34.8507 67.352 34.216ZM74.6705 31.664C75.2785 31.664 75.8305 31.7627 76.3265 31.96C76.8278 32.1573 77.2545 32.4373 77.6065 32.8C77.9638 33.1627 78.2385 33.6053 78.4305 34.128C78.6225 34.6507 78.7185 35.2347 78.7185 35.88C78.7185 36.5307 78.6225 37.1173 78.4305 37.64C78.2385 38.1627 77.9638 38.608 77.6065 38.976C77.2545 39.344 76.8278 39.6267 76.3265 39.824C75.8305 40.0213 75.2785 40.12 74.6705 40.12C74.0572 40.12 73.4998 40.0213 72.9985 39.824C72.4972 39.6267 72.0678 39.344 71.7105 38.976C71.3585 38.608 71.0838 38.1627 70.8865 37.64C70.6945 37.1173 70.5985 36.5307 70.5985 35.88C70.5985 35.2347 70.6945 34.6507 70.8865 34.128C71.0838 33.6053 71.3585 33.1627 71.7105 32.8C72.0678 32.4373 72.4972 32.1573 72.9985 31.96C73.4998 31.7627 74.0572 31.664 74.6705 31.664ZM74.6705 38.6C75.3532 38.6 75.8572 38.3707 76.1825 37.912C76.5132 37.4533 76.6785 36.7813 76.6785 35.896C76.6785 35.0107 76.5132 34.336 76.1825 33.872C75.8572 33.408 75.3532 33.176 74.6705 33.176C73.9772 33.176 73.4625 33.4107 73.1265 33.88C72.7958 34.344 72.6305 35.016 72.6305 35.896C72.6305 36.776 72.7958 37.448 73.1265 37.912C73.4625 38.3707 73.9772 38.6 74.6705 38.6ZM91.8054 31.792L89.1974 40H87.6134C87.432 40 87.3067 39.8827 87.2374 39.648L85.7654 34.904C85.7174 34.744 85.672 34.5867 85.6294 34.432C85.592 34.272 85.56 34.112 85.5334 33.952C85.5014 34.112 85.464 34.2747 85.4214 34.44C85.384 34.6 85.3414 34.76 85.2934 34.92L83.7974 39.648C83.7334 39.8827 83.592 40 83.3734 40H81.8534L79.2534 31.792H80.8294C80.9734 31.792 81.096 31.8267 81.1974 31.896C81.2987 31.9653 81.3654 32.0533 81.3974 32.16L82.5734 36.544C82.632 36.784 82.6827 37.0187 82.7254 37.248C82.7734 37.4773 82.8134 37.7067 82.8454 37.936C82.904 37.7067 82.9654 37.4773 83.0294 37.248C83.0987 37.0187 83.1707 36.784 83.2454 36.544L84.6054 32.144C84.6374 32.0373 84.6987 31.9493 84.7894 31.88C84.8854 31.8107 85 31.776 85.1334 31.776H86.0054C86.144 31.776 86.2614 31.8107 86.3574 31.88C86.4587 31.9493 86.5254 32.0373 86.5574 32.144L87.8774 36.544C87.9467 36.784 88.0107 37.0213 88.0694 37.256C88.1334 37.4853 88.1947 37.7147 88.2534 37.944C88.3227 37.4907 88.4214 37.024 88.5494 36.544L89.7574 32.16C89.7947 32.0533 89.8614 31.9653 89.9574 31.896C90.0534 31.8267 90.168 31.792 90.3014 31.792H91.8054ZM94.7771 32.8C94.9425 32.6347 95.1158 32.4827 95.2971 32.344C95.4838 32.2 95.6785 32.08 95.8811 31.984C96.0891 31.8827 96.3105 31.8053 96.5451 31.752C96.7798 31.6933 97.0358 31.664 97.3131 31.664C97.7611 31.664 98.1585 31.7413 98.5051 31.896C98.8518 32.0453 99.1398 32.2587 99.3691 32.536C99.6038 32.808 99.7798 33.136 99.8971 33.52C100.02 33.8987 100.081 34.3173 100.081 34.776V40H98.1051V34.776C98.1051 34.2747 97.9905 33.888 97.7611 33.616C97.5318 33.3387 97.1825 33.2 96.7131 33.2C96.3718 33.2 96.0518 33.2773 95.7531 33.432C95.4545 33.5867 95.1718 33.7973 94.9051 34.064V40H92.9291V31.792H94.1371C94.3931 31.792 94.5611 31.912 94.6411 32.152L94.7771 32.8ZM103.96 28.112V40H101.984V28.112H103.96ZM109.561 31.664C110.169 31.664 110.721 31.7627 111.217 31.96C111.718 32.1573 112.145 32.4373 112.497 32.8C112.854 33.1627 113.129 33.6053 113.321 34.128C113.513 34.6507 113.609 35.2347 113.609 35.88C113.609 36.5307 113.513 37.1173 113.321 37.64C113.129 38.1627 112.854 38.608 112.497 38.976C112.145 39.344 111.718 39.6267 111.217 39.824C110.721 40.0213 110.169 40.12 109.561 40.12C108.948 40.12 108.39 40.0213 107.889 39.824C107.388 39.6267 106.958 39.344 106.601 38.976C106.249 38.608 105.974 38.1627 105.777 37.64C105.585 37.1173 105.489 36.5307 105.489 35.88C105.489 35.2347 105.585 34.6507 105.777 34.128C105.974 33.6053 106.249 33.1627 106.601 32.8C106.958 32.4373 107.388 32.1573 107.889 31.96C108.39 31.7627 108.948 31.664 109.561 31.664ZM109.561 38.6C110.244 38.6 110.748 38.3707 111.073 37.912C111.404 37.4533 111.569 36.7813 111.569 35.896C111.569 35.0107 111.404 34.336 111.073 33.872C110.748 33.408 110.244 33.176 109.561 33.176C108.868 33.176 108.353 33.4107 108.017 33.88C107.686 34.344 107.521 35.016 107.521 35.896C107.521 36.776 107.686 37.448 108.017 37.912C108.353 38.3707 108.868 38.6 109.561 38.6ZM119.453 36.496C118.882 36.5227 118.402 36.5733 118.013 36.648C117.623 36.7173 117.311 36.808 117.077 36.92C116.842 37.032 116.674 37.1627 116.573 37.312C116.471 37.4613 116.421 37.624 116.421 37.8C116.421 38.1467 116.522 38.3947 116.725 38.544C116.933 38.6933 117.202 38.768 117.533 38.768C117.938 38.768 118.287 38.696 118.581 38.552C118.879 38.4027 119.17 38.1787 119.453 37.88V36.496ZM114.925 32.936C115.869 32.072 117.005 31.64 118.333 31.64C118.813 31.64 119.242 31.72 119.621 31.88C119.999 32.0347 120.319 32.2533 120.581 32.536C120.842 32.8133 121.039 33.1467 121.173 33.536C121.311 33.9253 121.381 34.352 121.381 34.816V40H120.485C120.298 40 120.154 39.9733 120.053 39.92C119.951 39.8613 119.871 39.7467 119.813 39.576L119.637 38.984C119.429 39.1707 119.226 39.336 119.029 39.48C118.831 39.6187 118.626 39.736 118.413 39.832C118.199 39.928 117.97 40 117.725 40.048C117.485 40.1013 117.218 40.128 116.925 40.128C116.578 40.128 116.258 40.0827 115.965 39.992C115.671 39.896 115.418 39.7547 115.205 39.568C114.991 39.3813 114.826 39.1493 114.709 38.872C114.591 38.5947 114.533 38.272 114.533 37.904C114.533 37.696 114.567 37.4907 114.637 37.288C114.706 37.08 114.818 36.8827 114.973 36.696C115.133 36.5093 115.338 36.3333 115.589 36.168C115.839 36.0027 116.146 35.8587 116.509 35.736C116.877 35.6133 117.303 35.5147 117.789 35.44C118.274 35.36 118.829 35.312 119.453 35.296V34.816C119.453 34.2667 119.335 33.8613 119.101 33.6C118.866 33.3333 118.527 33.2 118.085 33.2C117.765 33.2 117.498 33.2373 117.285 33.312C117.077 33.3867 116.893 33.472 116.733 33.568C116.573 33.6587 116.426 33.7413 116.293 33.816C116.165 33.8907 116.021 33.928 115.861 33.928C115.722 33.928 115.605 33.8933 115.509 33.824C115.413 33.7493 115.335 33.664 115.277 33.568L114.925 32.936ZM128.394 33.888C128.17 33.616 127.924 33.424 127.658 33.312C127.396 33.2 127.114 33.144 126.81 33.144C126.511 33.144 126.242 33.2 126.002 33.312C125.762 33.424 125.556 33.5947 125.386 33.824C125.215 34.048 125.084 34.336 124.994 34.688C124.903 35.0347 124.858 35.4453 124.858 35.92C124.858 36.4 124.895 36.808 124.97 37.144C125.05 37.4747 125.162 37.7467 125.306 37.96C125.45 38.168 125.626 38.32 125.834 38.416C126.042 38.5067 126.274 38.552 126.53 38.552C126.94 38.552 127.29 38.4667 127.578 38.296C127.866 38.1253 128.138 37.8827 128.394 37.568V33.888ZM130.37 28.112V40H129.162C128.9 40 128.735 39.88 128.666 39.64L128.498 38.848C128.167 39.2267 127.786 39.5333 127.354 39.768C126.927 40.0027 126.428 40.12 125.858 40.12C125.41 40.12 124.999 40.0267 124.626 39.84C124.252 39.6533 123.93 39.384 123.658 39.032C123.391 38.6747 123.183 38.2347 123.034 37.712C122.89 37.1893 122.818 36.592 122.818 35.92C122.818 35.312 122.9 34.7467 123.066 34.224C123.231 33.7013 123.468 33.248 123.778 32.864C124.087 32.48 124.458 32.1813 124.89 31.968C125.322 31.7493 125.807 31.64 126.346 31.64C126.804 31.64 127.196 31.712 127.522 31.856C127.847 32 128.138 32.1947 128.394 32.44V28.112H130.37Z" fill="white"/>
<path d="M29.4 42C26.4176 42 24 39.5813 24 36.6C24 34.245 25.5064 32.2425 27.6075 31.5038C27.6026 31.4025 27.6 31.3013 27.6 31.2C27.6 27.885 30.285 25.2 33.6 25.2C35.8238 25.2 37.7625 26.4094 38.8013 28.2075C39.3713 27.7913 40.0613 27.6 40.8 27.6C42.7875 27.6 44.4 29.1788 44.4 31.2C44.4 31.6575 44.3137 32.0925 44.16 32.4975C46.35 32.94 48 34.8788 48 37.2C48 39.8513 45.8513 42 43.2 42H29.4ZM35.3625 38.7038C35.715 39.0863 36.285 39.0863 36.6038 38.7038L39.6038 35.7038C39.9863 35.385 39.9863 34.815 39.6038 34.4625C39.285 34.1138 38.715 34.1138 38.3625 34.4625L36.9 35.9288V30.9C36.9 30.4013 36.4988 30 36 30C35.5013 30 35.1 30.4013 35.1 30.9V35.9288L33.6038 34.4625C33.285 34.1138 32.715 34.1138 32.3625 34.4625C32.0138 34.815 32.0138 35.385 32.3625 35.7038L35.3625 38.7038Z" fill="white"/>
</g>
<defs>
<clipPath id="clip0_306_2">
<rect width="156" height="68" fill="white"/>
</clipPath>
</defs>
</svg>
