<svg width="138" height="68" viewBox="0 0 138 68" fill="none" xmlns="http://www.w3.org/2000/svg">
<g clip-path="url(#clip0_306_2)">
<path d="M130.5 11H7.5C3.77208 11 0.75 15.0294 0.75 20V49C0.75 53.9706 3.77208 58 7.5 58H130.5C134.228 58 137.25 53.9706 137.25 49V20C137.25 15.0294 134.228 11 130.5 11Z" fill="black"/>
<path d="M130.5 11H7.5C3.77208 11 0.75 15.0294 0.75 20V49C0.75 53.9706 3.77208 58 7.5 58H130.5C134.228 58 137.25 53.9706 137.25 49V20C137.25 15.0294 134.228 11 130.5 11Z" stroke="black" stroke-width="2"/>
<path d="M59.56 34.216C59.56 35.064 59.4187 35.8427 59.136 36.552C58.8533 37.2613 58.456 37.872 57.944 38.384C57.432 38.896 56.816 39.2933 56.096 39.576C55.376 39.8587 54.576 40 53.696 40H49.288V28.432H53.696C54.576 28.432 55.376 28.576 56.096 28.864C56.816 29.1467 57.432 29.544 57.944 30.056C58.456 30.5627 58.8533 31.1707 59.136 31.88C59.4187 32.5893 59.56 33.368 59.56 34.216ZM57.352 34.216C57.352 33.5813 57.2667 33.0133 57.096 32.512C56.9307 32.0053 56.688 31.5787 56.368 31.232C56.0533 30.88 55.6693 30.6107 55.216 30.424C54.768 30.2373 54.2613 30.144 53.696 30.144H51.448V38.288H53.696C54.2613 38.288 54.768 38.1947 55.216 38.008C55.6693 37.8213 56.0533 37.5547 56.368 37.208C56.688 36.856 56.9307 36.4293 57.096 35.928C57.2667 35.4213 57.352 34.8507 57.352 34.216ZM64.6705 31.664C65.2785 31.664 65.8305 31.7627 66.3265 31.96C66.8278 32.1573 67.2545 32.4373 67.6065 32.8C67.9638 33.1627 68.2385 33.6053 68.4305 34.128C68.6225 34.6507 68.7185 35.2347 68.7185 35.88C68.7185 36.5307 68.6225 37.1173 68.4305 37.64C68.2385 38.1627 67.9638 38.608 67.6065 38.976C67.2545 39.344 66.8278 39.6267 66.3265 39.824C65.8305 40.0213 65.2785 40.12 64.6705 40.12C64.0572 40.12 63.4998 40.0213 62.9985 39.824C62.4972 39.6267 62.0678 39.344 61.7105 38.976C61.3585 38.608 61.0838 38.1627 60.8865 37.64C60.6945 37.1173 60.5985 36.5307 60.5985 35.88C60.5985 35.2347 60.6945 34.6507 60.8865 34.128C61.0838 33.6053 61.3585 33.1627 61.7105 32.8C62.0678 32.4373 62.4972 32.1573 62.9985 31.96C63.4998 31.7627 64.0572 31.664 64.6705 31.664ZM64.6705 38.6C65.3532 38.6 65.8572 38.3707 66.1825 37.912C66.5132 37.4533 66.6785 36.7813 66.6785 35.896C66.6785 35.0107 66.5132 34.336 66.1825 33.872C65.8572 33.408 65.3532 33.176 64.6705 33.176C63.9772 33.176 63.4625 33.4107 63.1265 33.88C62.7958 34.344 62.6305 35.016 62.6305 35.896C62.6305 36.776 62.7958 37.448 63.1265 37.912C63.4625 38.3707 63.9772 38.6 64.6705 38.6ZM81.8054 31.792L79.1974 40H77.6134C77.432 40 77.3067 39.8827 77.2374 39.648L75.7654 34.904C75.7174 34.744 75.672 34.5867 75.6294 34.432C75.592 34.272 75.56 34.112 75.5334 33.952C75.5014 34.112 75.464 34.2747 75.4214 34.44C75.384 34.6 75.3414 34.76 75.2934 34.92L73.7974 39.648C73.7334 39.8827 73.592 40 73.3734 40H71.8534L69.2534 31.792H70.8294C70.9734 31.792 71.096 31.8267 71.1974 31.896C71.2987 31.9653 71.3654 32.0533 71.3974 32.16L72.5734 36.544C72.632 36.784 72.6827 37.0187 72.7254 37.248C72.7734 37.4773 72.8134 37.7067 72.8454 37.936C72.904 37.7067 72.9654 37.4773 73.0294 37.248C73.0987 37.0187 73.1707 36.784 73.2454 36.544L74.6054 32.144C74.6374 32.0373 74.6987 31.9493 74.7894 31.88C74.8854 31.8107 75 31.776 75.1334 31.776H76.0054C76.144 31.776 76.2614 31.8107 76.3574 31.88C76.4587 31.9493 76.5254 32.0373 76.5574 32.144L77.8774 36.544C77.9467 36.784 78.0107 37.0213 78.0694 37.256C78.1334 37.4853 78.1947 37.7147 78.2534 37.944C78.3227 37.4907 78.4214 37.024 78.5494 36.544L79.7574 32.16C79.7947 32.0533 79.8614 31.9653 79.9574 31.896C80.0534 31.8267 80.168 31.792 80.3014 31.792H81.8054ZM84.7771 32.8C84.9425 32.6347 85.1158 32.4827 85.2971 32.344C85.4838 32.2 85.6785 32.08 85.8811 31.984C86.0891 31.8827 86.3105 31.8053 86.5451 31.752C86.7798 31.6933 87.0358 31.664 87.3131 31.664C87.7611 31.664 88.1585 31.7413 88.5051 31.896C88.8518 32.0453 89.1398 32.2587 89.3691 32.536C89.6038 32.808 89.7798 33.136 89.8971 33.52C90.0198 33.8987 90.0811 34.3173 90.0811 34.776V40H88.1051V34.776C88.1051 34.2747 87.9905 33.888 87.7611 33.616C87.5318 33.3387 87.1825 33.2 86.7131 33.2C86.3718 33.2 86.0518 33.2773 85.7531 33.432C85.4545 33.5867 85.1718 33.7973 84.9051 34.064V40H82.9291V31.792H84.1371C84.3931 31.792 84.5611 31.912 84.6411 32.152L84.7771 32.8ZM93.9604 28.112V40H91.9844V28.112H93.9604ZM99.5611 31.664C100.169 31.664 100.721 31.7627 101.217 31.96C101.718 32.1573 102.145 32.4373 102.497 32.8C102.854 33.1627 103.129 33.6053 103.321 34.128C103.513 34.6507 103.609 35.2347 103.609 35.88C103.609 36.5307 103.513 37.1173 103.321 37.64C103.129 38.1627 102.854 38.608 102.497 38.976C102.145 39.344 101.718 39.6267 101.217 39.824C100.721 40.0213 100.169 40.12 99.5611 40.12C98.9478 40.12 98.3905 40.0213 97.8891 39.824C97.3878 39.6267 96.9585 39.344 96.6011 38.976C96.2491 38.608 95.9745 38.1627 95.7771 37.64C95.5851 37.1173 95.4891 36.5307 95.4891 35.88C95.4891 35.2347 95.5851 34.6507 95.7771 34.128C95.9745 33.6053 96.2491 33.1627 96.6011 32.8C96.9585 32.4373 97.3878 32.1573 97.8891 31.96C98.3905 31.7627 98.9478 31.664 99.5611 31.664ZM99.5611 38.6C100.244 38.6 100.748 38.3707 101.073 37.912C101.404 37.4533 101.569 36.7813 101.569 35.896C101.569 35.0107 101.404 34.336 101.073 33.872C100.748 33.408 100.244 33.176 99.5611 33.176C98.8678 33.176 98.3531 33.4107 98.0171 33.88C97.6865 34.344 97.5211 35.016 97.5211 35.896C97.5211 36.776 97.6865 37.448 98.0171 37.912C98.3531 38.3707 98.8678 38.6 99.5611 38.6ZM109.453 36.496C108.882 36.5227 108.402 36.5733 108.013 36.648C107.623 36.7173 107.311 36.808 107.077 36.92C106.842 37.032 106.674 37.1627 106.573 37.312C106.471 37.4613 106.421 37.624 106.421 37.8C106.421 38.1467 106.522 38.3947 106.725 38.544C106.933 38.6933 107.202 38.768 107.533 38.768C107.938 38.768 108.287 38.696 108.581 38.552C108.879 38.4027 109.17 38.1787 109.453 37.88V36.496ZM104.925 32.936C105.869 32.072 107.005 31.64 108.333 31.64C108.813 31.64 109.242 31.72 109.621 31.88C109.999 32.0347 110.319 32.2533 110.581 32.536C110.842 32.8133 111.039 33.1467 111.173 33.536C111.311 33.9253 111.381 34.352 111.381 34.816V40H110.485C110.298 40 110.154 39.9733 110.053 39.92C109.951 39.8613 109.871 39.7467 109.813 39.576L109.637 38.984C109.429 39.1707 109.226 39.336 109.029 39.48C108.831 39.6187 108.626 39.736 108.413 39.832C108.199 39.928 107.97 40 107.725 40.048C107.485 40.1013 107.218 40.128 106.925 40.128C106.578 40.128 106.258 40.0827 105.965 39.992C105.671 39.896 105.418 39.7547 105.205 39.568C104.991 39.3813 104.826 39.1493 104.709 38.872C104.591 38.5947 104.533 38.272 104.533 37.904C104.533 37.696 104.567 37.4907 104.637 37.288C104.706 37.08 104.818 36.8827 104.973 36.696C105.133 36.5093 105.338 36.3333 105.589 36.168C105.839 36.0027 106.146 35.8587 106.509 35.736C106.877 35.6133 107.303 35.5147 107.789 35.44C108.274 35.36 108.829 35.312 109.453 35.296V34.816C109.453 34.2667 109.335 33.8613 109.101 33.6C108.866 33.3333 108.527 33.2 108.085 33.2C107.765 33.2 107.498 33.2373 107.285 33.312C107.077 33.3867 106.893 33.472 106.733 33.568C106.573 33.6587 106.426 33.7413 106.293 33.816C106.165 33.8907 106.021 33.928 105.861 33.928C105.722 33.928 105.605 33.8933 105.509 33.824C105.413 33.7493 105.335 33.664 105.277 33.568L104.925 32.936ZM118.394 33.888C118.17 33.616 117.924 33.424 117.658 33.312C117.396 33.2 117.114 33.144 116.81 33.144C116.511 33.144 116.242 33.2 116.002 33.312C115.762 33.424 115.556 33.5947 115.386 33.824C115.215 34.048 115.084 34.336 114.994 34.688C114.903 35.0347 114.858 35.4453 114.858 35.92C114.858 36.4 114.895 36.808 114.97 37.144C115.05 37.4747 115.162 37.7467 115.306 37.96C115.45 38.168 115.626 38.32 115.834 38.416C116.042 38.5067 116.274 38.552 116.53 38.552C116.94 38.552 117.29 38.4667 117.578 38.296C117.866 38.1253 118.138 37.8827 118.394 37.568V33.888ZM120.37 28.112V40H119.162C118.9 40 118.735 39.88 118.666 39.64L118.498 38.848C118.167 39.2267 117.786 39.5333 117.354 39.768C116.927 40.0027 116.428 40.12 115.858 40.12C115.41 40.12 114.999 40.0267 114.626 39.84C114.252 39.6533 113.93 39.384 113.658 39.032C113.391 38.6747 113.183 38.2347 113.034 37.712C112.89 37.1893 112.818 36.592 112.818 35.92C112.818 35.312 112.9 34.7467 113.066 34.224C113.231 33.7013 113.468 33.248 113.778 32.864C114.087 32.48 114.458 32.1813 114.89 31.968C115.322 31.7493 115.807 31.64 116.346 31.64C116.804 31.64 117.196 31.712 117.522 31.856C117.847 32 118.138 32.1947 118.394 32.44V28.112H120.37Z" fill="white"/>
<path d="M23.4 42C20.4176 42 18 39.5813 18 36.6C18 34.245 19.5064 32.2425 21.6075 31.5038C21.6026 31.4025 21.6 31.3013 21.6 31.2C21.6 27.885 24.285 25.2 27.6 25.2C29.8238 25.2 31.7625 26.4094 32.8013 28.2075C33.3713 27.7913 34.0613 27.6 34.8 27.6C36.7875 27.6 38.4 29.1788 38.4 31.2C38.4 31.6575 38.3137 32.0925 38.16 32.4975C40.35 32.94 42 34.8788 42 37.2C42 39.8513 39.8513 42 37.2 42H23.4ZM29.3625 38.7038C29.715 39.0863 30.285 39.0863 30.6038 38.7038L33.6038 35.7038C33.9863 35.385 33.9863 34.815 33.6038 34.4625C33.285 34.1138 32.715 34.1138 32.3625 34.4625L30.9 35.9288V30.9C30.9 30.4013 30.4988 30 30 30C29.5013 30 29.1 30.4013 29.1 30.9V35.9288L27.6038 34.4625C27.285 34.1138 26.715 34.1138 26.3625 34.4625C26.0138 34.815 26.0138 35.385 26.3625 35.7038L29.3625 38.7038Z" fill="white"/>
</g>
<defs>
<clipPath id="clip0_306_2">
<rect width="138" height="68" fill="white"/>
</clipPath>
</defs>
</svg>
