<svg width="164" height="68" viewBox="0 0 164 68" fill="none" xmlns="http://www.w3.org/2000/svg">
<g clip-path="url(#clip0_306_2)">
<path d="M155.087 11H8.91303C4.48275 11 0.891296 15.0294 0.891296 20V49C0.891296 53.9706 4.48275 58 8.91303 58H155.087C159.517 58 163.109 53.9706 163.109 49V20C163.109 15.0294 159.517 11 155.087 11Z" fill="black"/>
<path d="M155.087 11H8.91303C4.48275 11 0.891296 15.0294 0.891296 20V49C0.891296 53.9706 4.48275 58 8.91303 58H155.087C159.517 58 163.109 53.9706 163.109 49V20C163.109 15.0294 159.517 11 155.087 11Z" stroke="black" stroke-width="2"/>
<path d="M66.25 34.84C66.25 35.9133 66.08 36.89 65.74 37.77C65.4 38.65 64.92 39.4033 64.3 40.03C63.68 40.6567 62.9333 41.1433 62.06 41.49C61.1933 41.83 60.2333 42 59.18 42H53.83V27.67H59.18C60.2333 27.67 61.1933 27.8433 62.06 28.19C62.9333 28.53 63.68 29.0167 64.3 29.65C64.92 30.2767 65.4 31.03 65.74 31.91C66.08 32.79 66.25 33.7667 66.25 34.84ZM64.26 34.84C64.26 33.96 64.14 33.1733 63.9 32.48C63.66 31.7867 63.32 31.2 62.88 30.72C62.44 30.24 61.9067 29.8733 61.28 29.62C60.6533 29.3667 59.9533 29.24 59.18 29.24H55.77V40.43H59.18C59.9533 40.43 60.6533 40.3033 61.28 40.05C61.9067 39.7967 62.44 39.4333 62.88 38.96C63.32 38.48 63.66 37.8933 63.9 37.2C64.14 36.5067 64.26 35.72 64.26 34.84ZM72.7581 31.71C73.4981 31.71 74.1648 31.8333 74.7581 32.08C75.3515 32.3267 75.8581 32.6767 76.2781 33.13C76.6981 33.5833 77.0181 34.1333 77.2381 34.78C77.4648 35.42 77.5781 36.1367 77.5781 36.93C77.5781 37.73 77.4648 38.45 77.2381 39.09C77.0181 39.73 76.6981 40.2767 76.2781 40.73C75.8581 41.1833 75.3515 41.5333 74.7581 41.78C74.1648 42.02 73.4981 42.14 72.7581 42.14C72.0115 42.14 71.3381 42.02 70.7381 41.78C70.1448 41.5333 69.6381 41.1833 69.2181 40.73C68.7981 40.2767 68.4748 39.73 68.2481 39.09C68.0281 38.45 67.9181 37.73 67.9181 36.93C67.9181 36.1367 68.0281 35.42 68.2481 34.78C68.4748 34.1333 68.7981 33.5833 69.2181 33.13C69.6381 32.6767 70.1448 32.3267 70.7381 32.08C71.3381 31.8333 72.0115 31.71 72.7581 31.71ZM72.7581 40.75C73.7581 40.75 74.5048 40.4167 74.9981 39.75C75.4915 39.0767 75.7381 38.14 75.7381 36.94C75.7381 35.7333 75.4915 34.7933 74.9981 34.12C74.5048 33.4467 73.7581 33.11 72.7581 33.11C72.2515 33.11 71.8081 33.1967 71.4281 33.37C71.0548 33.5433 70.7415 33.7933 70.4881 34.12C70.2415 34.4467 70.0548 34.85 69.9281 35.33C69.8081 35.8033 69.7481 36.34 69.7481 36.94C69.7481 38.14 69.9948 39.0767 70.4881 39.75C70.9881 40.4167 71.7448 40.75 72.7581 40.75ZM93.6495 31.87L90.3695 42H88.9595C88.7862 42 88.6662 41.8867 88.5995 41.66L86.3595 34.79C86.3062 34.6367 86.2629 34.4833 86.2295 34.33C86.1962 34.17 86.1629 34.0133 86.1295 33.86C86.0962 34.0133 86.0629 34.17 86.0295 34.33C85.9962 34.4833 85.9529 34.64 85.8995 34.8L83.6195 41.66C83.5595 41.8867 83.4262 42 83.2195 42H81.8795L78.5995 31.87H79.9995C80.1395 31.87 80.2562 31.9067 80.3495 31.98C80.4495 32.0533 80.5162 32.14 80.5495 32.24L82.4895 38.76C82.6029 39.24 82.6929 39.6933 82.7595 40.12C82.8195 39.9 82.8795 39.6767 82.9395 39.45C83.0062 39.2233 83.0762 38.9933 83.1495 38.76L85.2895 32.2C85.3229 32.1 85.3795 32.0167 85.4595 31.95C85.5462 31.8833 85.6495 31.85 85.7695 31.85H86.5495C86.6829 31.85 86.7929 31.8833 86.8795 31.95C86.9662 32.0167 87.0262 32.1 87.0595 32.2L89.1495 38.76C89.2229 38.9933 89.2895 39.2233 89.3495 39.45C89.4095 39.6767 89.4662 39.9 89.5195 40.12C89.5529 39.9 89.5929 39.68 89.6395 39.46C89.6929 39.2333 89.7495 39 89.8095 38.76L91.7895 32.24C91.8229 32.1333 91.8862 32.0467 91.9795 31.98C92.0729 31.9067 92.1829 31.87 92.3095 31.87H93.6495ZM97.0627 33.34C97.2827 33.0933 97.516 32.87 97.7627 32.67C98.0093 32.47 98.2693 32.3 98.5427 32.16C98.8227 32.0133 99.116 31.9033 99.4227 31.83C99.736 31.75 100.073 31.71 100.433 31.71C100.986 31.71 101.473 31.8033 101.893 31.99C102.319 32.17 102.673 32.43 102.953 32.77C103.239 33.1033 103.456 33.5067 103.603 33.98C103.749 34.4533 103.823 34.9767 103.823 35.55V42H102.033V35.55C102.033 34.7833 101.856 34.19 101.503 33.77C101.156 33.3433 100.626 33.13 99.9127 33.13C99.386 33.13 98.8927 33.2567 98.4327 33.51C97.9793 33.7633 97.5593 34.1067 97.1727 34.54V42H95.3827V31.87H96.4527C96.706 31.87 96.8627 31.9933 96.9227 32.24L97.0627 33.34ZM108.375 27.27V42H106.595V27.27H108.375ZM115.532 31.71C116.272 31.71 116.938 31.8333 117.532 32.08C118.125 32.3267 118.632 32.6767 119.052 33.13C119.472 33.5833 119.792 34.1333 120.012 34.78C120.238 35.42 120.352 36.1367 120.352 36.93C120.352 37.73 120.238 38.45 120.012 39.09C119.792 39.73 119.472 40.2767 119.052 40.73C118.632 41.1833 118.125 41.5333 117.532 41.78C116.938 42.02 116.272 42.14 115.532 42.14C114.785 42.14 114.112 42.02 113.512 41.78C112.918 41.5333 112.412 41.1833 111.992 40.73C111.572 40.2767 111.248 39.73 111.022 39.09C110.802 38.45 110.692 37.73 110.692 36.93C110.692 36.1367 110.802 35.42 111.022 34.78C111.248 34.1333 111.572 33.5833 111.992 33.13C112.412 32.6767 112.918 32.3267 113.512 32.08C114.112 31.8333 114.785 31.71 115.532 31.71ZM115.532 40.75C116.532 40.75 117.278 40.4167 117.772 39.75C118.265 39.0767 118.512 38.14 118.512 36.94C118.512 35.7333 118.265 34.7933 117.772 34.12C117.278 33.4467 116.532 33.11 115.532 33.11C115.025 33.11 114.582 33.1967 114.202 33.37C113.828 33.5433 113.515 33.7933 113.262 34.12C113.015 34.4467 112.828 34.85 112.702 35.33C112.582 35.8033 112.522 36.34 112.522 36.94C112.522 38.14 112.768 39.0767 113.262 39.75C113.762 40.4167 114.518 40.75 115.532 40.75ZM128.099 37.44C127.279 37.4667 126.579 37.5333 125.999 37.64C125.426 37.74 124.956 37.8733 124.589 38.04C124.229 38.2067 123.966 38.4033 123.799 38.63C123.639 38.8567 123.559 39.11 123.559 39.39C123.559 39.6567 123.603 39.8867 123.689 40.08C123.776 40.2733 123.893 40.4333 124.039 40.56C124.193 40.68 124.369 40.77 124.569 40.83C124.776 40.8833 124.996 40.91 125.229 40.91C125.543 40.91 125.829 40.88 126.089 40.82C126.349 40.7533 126.593 40.66 126.819 40.54C127.053 40.42 127.273 40.2767 127.479 40.11C127.693 39.9433 127.899 39.7533 128.099 39.54V37.44ZM122.349 33.3C122.909 32.76 123.513 32.3567 124.159 32.09C124.806 31.8233 125.523 31.69 126.309 31.69C126.876 31.69 127.379 31.7833 127.819 31.97C128.259 32.1567 128.629 32.4167 128.929 32.75C129.229 33.0833 129.456 33.4867 129.609 33.96C129.763 34.4333 129.839 34.9533 129.839 35.52V42H129.049C128.876 42 128.743 41.9733 128.649 41.92C128.556 41.86 128.483 41.7467 128.429 41.58L128.229 40.62C127.963 40.8667 127.703 41.0867 127.449 41.28C127.196 41.4667 126.929 41.6267 126.649 41.76C126.369 41.8867 126.069 41.9833 125.749 42.05C125.436 42.1233 125.086 42.16 124.699 42.16C124.306 42.16 123.936 42.1067 123.589 42C123.243 41.8867 122.939 41.72 122.679 41.5C122.426 41.28 122.223 41.0033 122.069 40.67C121.923 40.33 121.849 39.93 121.849 39.47C121.849 39.07 121.959 38.6867 122.179 38.32C122.399 37.9467 122.756 37.6167 123.249 37.33C123.743 37.0433 124.386 36.81 125.179 36.63C125.973 36.4433 126.946 36.3367 128.099 36.31V35.52C128.099 34.7333 127.929 34.14 127.589 33.74C127.249 33.3333 126.753 33.13 126.099 33.13C125.659 33.13 125.289 33.1867 124.989 33.3C124.696 33.4067 124.439 33.53 124.219 33.67C124.006 33.8033 123.819 33.9267 123.659 34.04C123.506 34.1467 123.353 34.2 123.199 34.2C123.079 34.2 122.976 34.17 122.889 34.11C122.803 34.0433 122.729 33.9633 122.669 33.87L122.349 33.3ZM139.151 34.28C138.817 33.8333 138.457 33.5233 138.071 33.35C137.684 33.17 137.251 33.08 136.771 33.08C135.831 33.08 135.107 33.4167 134.601 34.09C134.094 34.7633 133.841 35.7233 133.841 36.97C133.841 37.63 133.897 38.1967 134.011 38.67C134.124 39.1367 134.291 39.5233 134.511 39.83C134.731 40.13 135.001 40.35 135.321 40.49C135.641 40.63 136.004 40.7 136.411 40.7C136.997 40.7 137.507 40.5667 137.941 40.3C138.381 40.0333 138.784 39.6567 139.151 39.17V34.28ZM140.931 27.27V42H139.871C139.617 42 139.457 41.8767 139.391 41.63L139.231 40.4C138.797 40.92 138.304 41.34 137.751 41.66C137.197 41.98 136.557 42.14 135.831 42.14C135.251 42.14 134.724 42.03 134.251 41.81C133.777 41.5833 133.374 41.2533 133.041 40.82C132.707 40.3867 132.451 39.8467 132.271 39.2C132.091 38.5533 132.001 37.81 132.001 36.97C132.001 36.2233 132.101 35.53 132.301 34.89C132.501 34.2433 132.787 33.6833 133.161 33.21C133.534 32.7367 133.991 32.3667 134.531 32.1C135.077 31.8267 135.691 31.69 136.371 31.69C136.991 31.69 137.521 31.7967 137.961 32.01C138.407 32.2167 138.804 32.5067 139.151 32.88V27.27H140.931Z" fill="white"/>
<path d="M41 37V41C41 41.5304 40.7893 42.0391 40.4142 42.4142C40.0391 42.7893 39.5304 43 39 43H25C24.4696 43 23.9609 42.7893 23.5858 42.4142C23.2107 42.0391 23 41.5304 23 41V37" stroke="white" stroke-width="2" stroke-linecap="round" stroke-linejoin="round"/>
<path d="M27 32L32 37L37 32" stroke="white" stroke-width="2" stroke-linecap="round" stroke-linejoin="round"/>
<path d="M32 37V25" stroke="white" stroke-width="2" stroke-linecap="round" stroke-linejoin="round"/>
</g>
<defs>
<clipPath id="clip0_306_2">
<rect width="164" height="68" fill="white"/>
</clipPath>
</defs>
</svg>
